<svg width="20" height="20" viewBox="0 0 20 20" fill="none" xmlns="http://www.w3.org/2000/svg">
<g clip-path="url(#clip0_1_3531)">
<path d="M7.50001 5.83337H5.00001C4.55798 5.83337 4.13406 6.00897 3.8215 6.32153C3.50894 6.63409 3.33334 7.05801 3.33334 7.50004V15C3.33334 15.4421 3.50894 15.866 3.8215 16.1786C4.13406 16.4911 4.55798 16.6667 5.00001 16.6667H12.5C12.942 16.6667 13.366 16.4911 13.6785 16.1786C13.9911 15.866 14.1667 15.4421 14.1667 15V12.5" stroke="#1B41C6" stroke-width="1.25" stroke-linecap="round" stroke-linejoin="round"/>
<path d="M7.5 12.5H10L17.0833 5.41669C17.4149 5.08517 17.6011 4.63553 17.6011 4.16669C17.6011 3.69785 17.4149 3.24821 17.0833 2.91669C16.7518 2.58517 16.3022 2.39893 15.8333 2.39893C15.3645 2.39893 14.9149 2.58517 14.5833 2.91669L7.5 10V12.5Z" stroke="#1B41C6" stroke-width="1.25" stroke-linecap="round" stroke-linejoin="round"/>
<path d="M13.3333 4.16663L15.8333 6.66663" stroke="#1B41C6" stroke-width="1.25" stroke-linecap="round" stroke-linejoin="round"/>
</g>
<defs>
<clipPath id="clip0_1_3531">
<rect width="20" height="20" fill="white"/>
</clipPath>
</defs>
</svg>
