<svg width="10" height="13" viewBox="0 0 10 13" fill="none" xmlns="http://www.w3.org/2000/svg">
<path d="M5 0.361572C2.375 0.361572 0 2.41401 0 5.58827C0 7.6152 1.53125 9.99909 4.5875 12.7463C4.825 12.9566 5.18125 12.9566 5.41875 12.7463C8.46875 9.99909 10 7.6152 10 5.58827C10 2.41401 7.625 0.361572 5 0.361572ZM5 6.73559C4.3125 6.73559 3.75 6.16193 3.75 5.46079C3.75 4.75964 4.3125 4.18598 5 4.18598C5.6875 4.18598 6.25 4.75964 6.25 5.46079C6.25 6.16193 5.6875 6.73559 5 6.73559Z" fill="white"/>
</svg>
