<svg width="22" height="14" viewBox="0 0 22 14" fill="none" xmlns="http://www.w3.org/2000/svg">
<g filter="url(#filter0_d_224_2411)">
<path d="M0 1C0 0.447715 0.447715 0 1 0H21C21.5523 0 22 0.447715 22 1C22 1.55228 21.5523 2 21 2H1C0.447716 2 0 1.55228 0 1Z" fill="white"/>
</g>
<g filter="url(#filter1_d_224_2411)">
<path d="M0 7C0 6.44772 0.447715 6 1 6H21C21.5523 6 22 6.44772 22 7C22 7.55228 21.5523 8 21 8H1C0.447716 8 0 7.55228 0 7Z" fill="white"/>
</g>
<g filter="url(#filter2_d_224_2411)">
<path d="M0 13C0 12.4477 0.447715 12 1 12H21C21.5523 12 22 12.4477 22 13C22 13.5523 21.5523 14 21 14H1C0.447716 14 0 13.5523 0 13Z" fill="white"/>
</g>
<defs>
<filter id="filter0_d_224_2411" x="0" y="0" width="22" height="2" filterUnits="userSpaceOnUse" color-interpolation-filters="sRGB">
<feFlood flood-opacity="0" result="BackgroundImageFix"/>
<feColorMatrix in="SourceAlpha" type="matrix" values="0 0 0 0 0 0 0 0 0 0 0 0 0 0 0 0 0 0 127 0" result="hardAlpha"/>
<feOffset/>
<feColorMatrix type="matrix" values="0 0 0 0 0.388235 0 0 0 0 0.376471 0 0 0 0 0.376471 0 0 0 0.03 0"/>
<feBlend mode="normal" in2="BackgroundImageFix" result="effect1_dropShadow_224_2411"/>
<feBlend mode="normal" in="SourceGraphic" in2="effect1_dropShadow_224_2411" result="shape"/>
</filter>
<filter id="filter1_d_224_2411" x="0" y="6" width="22" height="2" filterUnits="userSpaceOnUse" color-interpolation-filters="sRGB">
<feFlood flood-opacity="0" result="BackgroundImageFix"/>
<feColorMatrix in="SourceAlpha" type="matrix" values="0 0 0 0 0 0 0 0 0 0 0 0 0 0 0 0 0 0 127 0" result="hardAlpha"/>
<feOffset/>
<feColorMatrix type="matrix" values="0 0 0 0 0.388235 0 0 0 0 0.376471 0 0 0 0 0.376471 0 0 0 0.03 0"/>
<feBlend mode="normal" in2="BackgroundImageFix" result="effect1_dropShadow_224_2411"/>
<feBlend mode="normal" in="SourceGraphic" in2="effect1_dropShadow_224_2411" result="shape"/>
</filter>
<filter id="filter2_d_224_2411" x="0" y="12" width="22" height="2" filterUnits="userSpaceOnUse" color-interpolation-filters="sRGB">
<feFlood flood-opacity="0" result="BackgroundImageFix"/>
<feColorMatrix in="SourceAlpha" type="matrix" values="0 0 0 0 0 0 0 0 0 0 0 0 0 0 0 0 0 0 127 0" result="hardAlpha"/>
<feOffset/>
<feColorMatrix type="matrix" values="0 0 0 0 0.388235 0 0 0 0 0.376471 0 0 0 0 0.376471 0 0 0 0.03 0"/>
<feBlend mode="normal" in2="BackgroundImageFix" result="effect1_dropShadow_224_2411"/>
<feBlend mode="normal" in="SourceGraphic" in2="effect1_dropShadow_224_2411" result="shape"/>
</filter>
</defs>
</svg>
