<svg width="44" height="44" viewBox="0 0 44 44" fill="none" xmlns="http://www.w3.org/2000/svg">
<g clip-path="url(#clip0_475_3032)">
<path d="M7.3335 9.16683C7.3335 8.6806 7.52665 8.21428 7.87047 7.87047C8.21428 7.52665 8.6806 7.3335 9.16683 7.3335H16.5002C16.9864 7.3335 17.4527 7.52665 17.7965 7.87047C18.1403 8.21428 18.3335 8.6806 18.3335 9.16683V16.5002C18.3335 16.9864 18.1403 17.4527 17.7965 17.7965C17.4527 18.1403 16.9864 18.3335 16.5002 18.3335H9.16683C8.6806 18.3335 8.21428 18.1403 7.87047 17.7965C7.52665 17.4527 7.3335 16.9864 7.3335 16.5002V9.16683Z" stroke="#28366D" stroke-width="2.75" stroke-linecap="round" stroke-linejoin="round"/>
<path d="M25.6665 9.16683C25.6665 8.6806 25.8597 8.21428 26.2035 7.87047C26.5473 7.52665 27.0136 7.3335 27.4998 7.3335H34.8332C35.3194 7.3335 35.7857 7.52665 36.1295 7.87047C36.4734 8.21428 36.6665 8.6806 36.6665 9.16683V16.5002C36.6665 16.9864 36.4734 17.4527 36.1295 17.7965C35.7857 18.1403 35.3194 18.3335 34.8332 18.3335H27.4998C27.0136 18.3335 26.5473 18.1403 26.2035 17.7965C25.8597 17.4527 25.6665 16.9864 25.6665 16.5002V9.16683Z" stroke="#28366D" stroke-width="2.75" stroke-linecap="round" stroke-linejoin="round"/>
<path d="M7.3335 27.4998C7.3335 27.0136 7.52665 26.5473 7.87047 26.2035C8.21428 25.8597 8.6806 25.6665 9.16683 25.6665H16.5002C16.9864 25.6665 17.4527 25.8597 17.7965 26.2035C18.1403 26.5473 18.3335 27.0136 18.3335 27.4998V34.8332C18.3335 35.3194 18.1403 35.7857 17.7965 36.1295C17.4527 36.4734 16.9864 36.6665 16.5002 36.6665H9.16683C8.6806 36.6665 8.21428 36.4734 7.87047 36.1295C7.52665 35.7857 7.3335 35.3194 7.3335 34.8332V27.4998Z" stroke="#28366D" stroke-width="2.75" stroke-linecap="round" stroke-linejoin="round"/>
<path d="M25.6665 27.4998C25.6665 27.0136 25.8597 26.5473 26.2035 26.2035C26.5473 25.8597 27.0136 25.6665 27.4998 25.6665H34.8332C35.3194 25.6665 35.7857 25.8597 36.1295 26.2035C36.4734 26.5473 36.6665 27.0136 36.6665 27.4998V34.8332C36.6665 35.3194 36.4734 35.7857 36.1295 36.1295C35.7857 36.4734 35.3194 36.6665 34.8332 36.6665H27.4998C27.0136 36.6665 26.5473 36.4734 26.2035 36.1295C25.8597 35.7857 25.6665 35.3194 25.6665 34.8332V27.4998Z" stroke="#28366D" stroke-width="2.75" stroke-linecap="round" stroke-linejoin="round"/>
</g>
<defs>
<clipPath id="clip0_475_3032">
<rect width="44" height="44" rx="5" fill="white"/>
</clipPath>
</defs>
</svg>
