<svg width="27" height="27" viewBox="0 0 27 27" fill="none" xmlns="http://www.w3.org/2000/svg">
<path d="M19.25 17H18.065L17.645 16.595C18.5824 15.5059 19.2675 14.2231 19.6513 12.8384C20.0351 11.4536 20.108 10.0012 19.865 8.58496C19.16 4.41496 15.68 1.08496 11.48 0.574962C10.0034 0.388161 8.50364 0.54162 7.0955 1.0236C5.68736 1.50557 4.40813 2.30329 3.35571 3.35571C2.30329 4.40813 1.50557 5.68736 1.0236 7.0955C0.54162 8.50364 0.388161 10.0034 0.574962 11.48C1.08496 15.68 4.41496 19.16 8.58496 19.865C10.0012 20.108 11.4536 20.0351 12.8384 19.6513C14.2231 19.2675 15.5059 18.5824 16.595 17.645L17 18.065V19.25L23.375 25.625C23.99 26.24 24.995 26.24 25.61 25.625C26.225 25.01 26.225 24.005 25.61 23.39L19.25 17ZM10.25 17C6.51496 17 3.49996 13.985 3.49996 10.25C3.49996 6.51496 6.51496 3.49996 10.25 3.49996C13.985 3.49996 17 6.51496 17 10.25C17 13.985 13.985 17 10.25 17Z" fill="white"/>
</svg>
